# Tiled2Unity generated file. Do not modify by hand.
# Wavefront file for 'Escena1_mesh_0005.obj'

# Vertices (Count = 16)
v -17 -7 0
v -18 -7 0
v -18 -6 0
v -17 -6 0
v -2 -8 0
v -3 -8 0
v -3 -7 0
v -2 -7 0
v -4 -8 0
v -5 -8 0
v -5 -7 0
v -4 -7 0
v -18 -8 0
v -19 -8 0
v -19 -7 0
v -18 -7 0

# Texture cooridinates (Count = 12)
vt 0.5346821 0.634393
vt 0.5650289 0.634393
vt 0.5650289 0.6647399
vt 0.5346821 0.6647399
vt 0.5346821 0.933526
vt 0.5650289 0.933526
vt 0.5650289 0.9638728
vt 0.5346821 0.9638728
vt 0.5679191 0.966763
vt 0.5982659 0.966763
vt 0.5982659 0.9971098
vt 0.5679191 0.9971098

# Normal
vn 0 0 -1

# Mesh description
g Escena1_mesh_0005

# Faces
f 1/1/1 2/2/1 3/3/1 4/4/1
f 5/5/1 6/6/1 7/7/1 8/8/1
f 9/9/1 10/10/1 11/11/1 12/12/1
f 13/9/1 14/10/1 15/11/1 16/12/1

